<!-- Generated by IcoMoon.io -->
<svg version="1.1" xmlns="http://www.w3.org/2000/svg" width="32" height="32" viewBox="0 0 32 32">
<title>cloud</title>
<path fill="#e6e7e8" d="M7.18 27.64h-3.861c-0.305 0-0.551-0.247-0.551-0.552s0.247-0.552 0.551-0.552h3.861c0.914 0 1.655-0.741 1.655-1.655v-8.273c0-0.304 0.247-0.552 0.552-0.552s0.552 0.247 0.552 0.552v8.273c-0.002 1.522-1.235 2.756-2.758 2.758z"></path>
<path fill="#e6e7e8" d="M16.005 29.846c-0.305 0-0.552-0.247-0.552-0.552v-12.686c0-0.304 0.247-0.552 0.552-0.552s0.552 0.247 0.552 0.552v12.686c0 0.304-0.247 0.552-0.552 0.552z"></path>
<path fill="#e6e7e8" d="M28.691 27.64h-3.861c-1.522-0.002-2.756-1.235-2.758-2.758v-8.273c0-0.304 0.247-0.552 0.552-0.552s0.552 0.247 0.552 0.552v8.273c0 0.914 0.741 1.655 1.655 1.655h3.861c0.304 0 0.552 0.247 0.552 0.552s-0.247 0.552-0.552 0.552z"></path>
<path fill="#57a4ff" d="M32 12.196c-0.002-2.021-1.373-3.783-3.332-4.28-0.216-2.264-2.117-3.992-4.39-3.993-0.85-0.002-1.683 0.245-2.394 0.711-0.827-3.247-4.129-5.209-7.376-4.383-2.153 0.548-3.834 2.229-4.383 4.383-0.711-0.466-1.543-0.714-2.394-0.711-2.274 0.001-4.174 1.73-4.39 3.993-2.364 0.593-3.8 2.989-3.208 5.353 0.493 1.966 2.262 3.344 4.289 3.34h23.166c2.437 0 4.413-1.976 4.413-4.412z"></path>
<path fill="#9bc9ff" d="M16.005 32.053c0.914 0 1.655-0.741 1.655-1.655s-0.741-1.655-1.655-1.655c-0.914 0-1.655 0.741-1.655 1.655s0.741 1.655 1.655 1.655z"></path>
<path fill="#9bc9ff" d="M30.345 28.743c0.914 0 1.655-0.741 1.655-1.655s-0.741-1.655-1.655-1.655c-0.914 0-1.655 0.741-1.655 1.655s0.741 1.655 1.655 1.655z"></path>
<path fill="#9bc9ff" d="M1.664 25.434c-0.914 0-1.655 0.741-1.655 1.655s0.741 1.655 1.655 1.655c0.914 0 1.655-0.741 1.655-1.655s-0.741-1.655-1.655-1.655z"></path>
<path fill="#006df0" d="M15.453 14.403h1.103v1.103h-1.103z"></path>
<path fill="#006df0" d="M17.659 14.403h1.103v1.103h-1.103z"></path>
<path fill="#006df0" d="M19.866 14.403h1.103v1.103h-1.103z"></path>
<path fill="#006df0" d="M22.072 14.403h1.103v1.103h-1.103z"></path>
<path fill="#006df0" d="M24.278 14.403h1.103v1.103h-1.103z"></path>
<path fill="#006df0" d="M26.484 14.403h1.103v1.103h-1.103z"></path>
<path fill="#006df0" d="M13.247 14.403h1.103v1.103h-1.103z"></path>
<path fill="#006df0" d="M11.041 14.403h1.103v1.103h-1.103z"></path>
<path fill="#006df0" d="M8.834 14.403h1.103v1.103h-1.103z"></path>
<path fill="#006df0" d="M6.628 14.403h1.103v1.103h-1.103z"></path>
<path fill="#006df0" d="M4.422 14.403h1.103v1.103h-1.103z"></path>
<path fill="#006df0" d="M15.453 29.846h1.103v1.103h-1.103z"></path>
<path fill="#006df0" d="M29.794 26.537h1.103v1.103h-1.103z"></path>
<path fill="#006df0" d="M17.108 17.712h1.103v1.103h-1.103z"></path>
<path fill="#006df0" d="M17.108 19.918h1.103v1.103h-1.103z"></path>
<path fill="#006df0" d="M17.108 22.124h1.103v1.103h-1.103z"></path>
<path fill="#006df0" d="M17.108 24.331h1.103v1.103h-1.103z"></path>
<path fill="#006df0" d="M23.727 17.712h1.103v1.103h-1.103z"></path>
<path fill="#006df0" d="M23.727 19.918h1.103v1.103h-1.103z"></path>
<path fill="#006df0" d="M23.727 22.124h1.103v1.103h-1.103z"></path>
<path fill="#006df0" d="M23.727 24.331h1.103v1.103h-1.103z"></path>
<path fill="#006df0" d="M1.113 26.537h1.103v1.103h-1.103z"></path>
<path fill="#006df0" d="M7.18 17.712h1.103v1.103h-1.103z"></path>
<path fill="#006df0" d="M7.18 19.918h1.103v1.103h-1.103z"></path>
<path fill="#006df0" d="M7.18 22.124h1.103v1.103h-1.103z"></path>
<path fill="#006df0" d="M7.18 24.331h1.103v1.103h-1.103z"></path>
<path fill="#006df0" d="M17.108 26.537h1.103v1.103h-1.103z"></path>
</svg>
