<svg xmlns="http://www.w3.org/2000/svg" width="294.44" height="72.66" viewBox="0 0 294.44 72.66">
  <path fill-rule="evenodd" d="M14.665 71.31V52.05H-.012v19.26h14.677zm13.941-21.2A34.829 34.829 0 0 0 47.618 69.7a38.327 38.327 0 0 0 15.344 2.95q11.607 0 19.88-5.09a29.45 29.45 0 0 0 11.874-13.11L77.238 49.1a13.551 13.551 0 0 1-5.671 5.89 17.164 17.164 0 0 1-8.872 2.41 16.762 16.762 0 0 1-7.071-1.54 17.383 17.383 0 0 1-5.8-4.35 21.487 21.487 0 0 1-3.936-6.69 23.958 23.958 0 0 1-1.468-8.56 25.06 25.06 0 0 1 1.4-8.56 19.9 19.9 0 0 1 3.869-6.62 17.6 17.6 0 0 1 5.8-4.28 17.591 17.591 0 0 1 15.477.53 15.785 15.785 0 0 1 6 5.96l17.484-5.35A31.6 31.6 0 0 0 82.376 4.96Q74.301.01 62.829.01a38.317 38.317 0 0 0-15.343 2.94 35.867 35.867 0 0 0-11.608 7.9 33.859 33.859 0 0 0-7.338 11.5 38.238 38.238 0 0 0-2.535 13.91 37.563 37.563 0 0 0 2.601 13.85zM152.62 69.7a33.688 33.688 0 0 0 11.48-7.96 35.7 35.7 0 0 0 7.2-11.57 37.847 37.847 0 0 0 2.54-13.77 38.256 38.256 0 0 0-2.54-13.92 35.259 35.259 0 0 0-7.27-11.57 34.774 34.774 0 0 0-11.48-7.96A37.812 37.812 0 0 0 137.278.01a38.317 38.317 0 0 0-15.343 2.94 34.616 34.616 0 0 0-11.541 7.96 35.265 35.265 0 0 0-7.272 11.57 38.253 38.253 0 0 0-2.535 13.92 37.843 37.843 0 0 0 2.535 13.77 35.059 35.059 0 0 0 7.272 11.57 34.327 34.327 0 0 0 11.541 7.96 41.372 41.372 0 0 0 30.685 0zM120.4 27.97a20.535 20.535 0 0 1 3.87-6.69 18.11 18.11 0 0 1 5.8-4.41 16.4 16.4 0 0 1 7.205-1.61 16.935 16.935 0 0 1 7.2 1.54 17.209 17.209 0 0 1 5.807 4.35 20.827 20.827 0 0 1 3.87 6.68 24.77 24.77 0 0 1 1.4 8.43 25.115 25.115 0 0 1-1.4 8.56 20.769 20.769 0 0 1-3.87 6.69 17.475 17.475 0 0 1-5.807 4.35 17.625 17.625 0 0 1-14.41 0 17.379 17.379 0 0 1-5.8-4.35 20.722 20.722 0 0 1-3.87-6.62 26.243 26.243 0 0 1 .005-16.92zm174.05-.4a57.918 57.918 0 0 0-.87-10.04 26.409 26.409 0 0 0-3.14-8.82 17.256 17.256 0 0 0-6.4-6.29A20.683 20.683 0 0 0 273.5.01a29.1 29.1 0 0 0-14.94 3.81 30.238 30.238 0 0 0-10.81 11.04 19.186 19.186 0 0 0-6.14-10.57Q236.81.015 228 .01a31.661 31.661 0 0 0-15.41 3.68 26.631 26.631 0 0 0-10.6 10.5V1.22h-16.15v70.09h17.88V30.38a21.766 21.766 0 0 1 6.74-10.57 15.155 15.155 0 0 1 9.94-4.01 9.342 9.342 0 0 1 7.94 3.87q2.865 3.885 2.86 12.31v39.33h17.88v-40.8a22.521 22.521 0 0 1 6.67-10.63 14.985 14.985 0 0 1 10.01-4.08 9.33 9.33 0 0 1 7.94 3.87q2.865 3.885 2.87 12.31v39.33h17.88V27.57z"/>
</svg>
