<!-- Generated by IcoMoon.io -->
<svg version="1.1" xmlns="http://www.w3.org/2000/svg" width="32" height="32" viewBox="0 0 32 32">
<title>database</title>
<path fill="#ffda44" d="M25.944 1.103h-2.771v6.621h8.828v-5.517h-4.414z"></path>
<path fill="#ffda44" d="M25.944 12.69h-2.771v6.621h8.828v-5.517h-4.414z"></path>
<path fill="#ffda44" d="M25.944 24.276h-2.771v6.621h8.828v-5.517h-4.414z"></path>
<path fill="#fff" d="M19.31 16c0 0.609-0.494 1.103-1.103 1.103s-1.103-0.494-1.103-1.103c0-0.609 0.494-1.103 1.103-1.103s1.103 0.494 1.103 1.103z"></path>
<path fill="#bddbff" d="M13.241 9.379c0-1.219-2.964-2.207-6.621-2.207s-6.621 0.988-6.621 2.207c0 1.219 2.964 2.207 6.621 2.207s6.621-0.988 6.621-2.207z"></path>
<path fill="#9bc9ff" d="M6.621 16c3.658 0 6.621-0.988 6.621-2.207v-4.414c0 1.219-2.963 2.207-6.621 2.207s-6.621-0.988-6.621-2.207v4.414c0 1.219 2.963 2.207 6.621 2.207z"></path>
<path fill="#57a4ff" d="M6.621 20.414c3.658 0 6.621-0.988 6.621-2.207v-4.414c0 1.219-2.963 2.207-6.621 2.207s-6.621-0.988-6.621-2.207v4.414c0 1.219 2.963 2.207 6.621 2.207z"></path>
<path fill="#2488ff" d="M6.621 24.828c3.658 0 6.621-0.988 6.621-2.207v-4.414c0 1.219-2.963 2.207-6.621 2.207s-6.621-0.988-6.621-2.207v4.414c0 1.219 2.963 2.207 6.621 2.207z"></path>
<path fill="#006df0" d="M18.207 17.655c-0.914 0-1.655-0.741-1.655-1.655s0.741-1.655 1.655-1.655c0.914 0 1.655 0.741 1.655 1.655s-0.741 1.655-1.655 1.655zM18.207 15.448c-0.305 0-0.552 0.247-0.552 0.552s0.247 0.552 0.552 0.552c0.305 0 0.552-0.247 0.552-0.552s-0.247-0.552-0.552-0.552z"></path>
<path fill="#006df0" d="M14.897 15.448h2.207v1.103h-2.207z"></path>
<path fill="#006df0" d="M19.31 15.448h2.207v1.103h-2.207z"></path>
<path fill="#006df0" d="M18.759 14.897h-1.103v-11.034h3.862v1.103h-2.759z"></path>
<path fill="#006df0" d="M21.517 28.138h-3.862v-11.034h1.103v9.931h2.759z"></path>
<path fill="#006df0" d="M24.828 4.414h1.103v1.103h-1.103z"></path>
<path fill="#006df0" d="M27.034 4.414h1.103v1.103h-1.103z"></path>
<path fill="#006df0" d="M29.241 4.414h1.103v1.103h-1.103z"></path>
<path fill="#006df0" d="M24.828 16h1.103v1.103h-1.103z"></path>
<path fill="#006df0" d="M27.034 16h1.103v1.103h-1.103z"></path>
<path fill="#006df0" d="M29.241 16h1.103v1.103h-1.103z"></path>
<path fill="#006df0" d="M24.828 27.586h1.103v1.103h-1.103z"></path>
<path fill="#006df0" d="M27.034 27.586h1.103v1.103h-1.103z"></path>
<path fill="#006df0" d="M29.241 27.586h1.103v1.103h-1.103z"></path>
</svg>
