<!-- Generated by IcoMoon.io -->
<svg version="1.1" xmlns="http://www.w3.org/2000/svg" width="32" height="32" viewBox="0 0 32 32">
<title>server</title>
<path d="M28.111 25.348h-11.673v5.779h7.443c0.241 0 0.436 0.195 0.436 0.436s-0.195 0.436-0.436 0.436h-15.761c-0.241 0-0.436-0.195-0.436-0.436s0.195-0.436 0.436-0.436h7.443v-5.779h-11.673c-2.093-0.001-3.79-1.696-3.795-3.788v-11.865c0-0.034 0.002-0.068 0.006-0.101l-0 0.004c0-0.008 0.003-0.015 0.004-0.025 0.003-0.023 0.007-0.045 0.012-0.070 0.002-0.009 0.005-0.017 0.007-0.027 0.006-0.023 0.012-0.044 0.019-0.064 0.003-0.009 0.007-0.019 0.011-0.028 0.008-0.021 0.016-0.040 0.025-0.061 0.003-0.006 0.005-0.011 0.007-0.017l4.377-8.822c0.147-0.29 0.442-0.485 0.784-0.485 0 0 0.001 0 0.001 0h21.304c0 0 0.001 0 0.001 0 0.341 0 0.637 0.195 0.781 0.48l0.002 0.005 4.377 8.822c0.003 0.006 0.005 0.011 0.007 0.017 0.009 0.021 0.018 0.040 0.025 0.061 0.004 0.009 0.007 0.019 0.011 0.028 0.007 0.021 0.013 0.042 0.019 0.064 0.002 0.009 0.005 0.017 0.007 0.027 0.005 0.025 0.009 0.047 0.012 0.070 0.001 0.009 0.003 0.017 0.004 0.025 0.003 0.029 0.005 0.062 0.006 0.096v11.865c-0.004 2.093-1.701 3.788-3.794 3.789h-0zM26.109 1.748h-20.217l-3.51 7.072h27.237zM30.154 10.569h-28.308v5.658h28.308v-5.658zM30.154 17.975h-28.308v3.584c0.002 1.127 0.916 2.040 2.043 2.041h24.222c1.127-0.001 2.041-0.914 2.043-2.041v-3.585zM26.698 21.675c-0.456-0.001-0.825-0.371-0.825-0.826s0.37-0.826 0.826-0.826c0.456 0 0.826 0.369 0.826 0.826v0c-0.001 0.457-0.371 0.827-0.828 0.827h-0zM26.698 20.603c-0.135 0-0.244 0.11-0.244 0.244s0.109 0.244 0.244 0.244 0.244-0.109 0.244-0.244v0c-0-0.135-0.11-0.244-0.245-0.244v0zM23.344 21.675c-0.456-0.001-0.825-0.371-0.825-0.826s0.37-0.826 0.826-0.826c0.456 0 0.826 0.369 0.826 0.826v0c-0.001 0.457-0.371 0.827-0.827 0.827h-0zM23.344 20.603c-0.135 0-0.244 0.109-0.244 0.244s0.109 0.244 0.244 0.244 0.244-0.109 0.244-0.244v0c-0-0.135-0.109-0.244-0.244-0.244h-0zM19.946 21.675c-0.456-0.001-0.825-0.371-0.825-0.826s0.37-0.826 0.826-0.826c0.456 0 0.826 0.369 0.826 0.826v0c-0.001 0.457-0.371 0.827-0.827 0.827h-0zM19.946 20.603c-0.135 0-0.244 0.11-0.244 0.244s0.109 0.244 0.244 0.244 0.244-0.109 0.244-0.244v0c-0-0.135-0.109-0.244-0.244-0.244h-0zM4.958 22.894c-1.128-0.002-2.042-0.917-2.042-2.046 0-1.13 0.916-2.046 2.046-2.046s2.045 0.915 2.046 2.045v0c-0.002 1.13-0.918 2.046-2.049 2.047h-0zM4.958 19.675c-0.646 0.001-1.17 0.525-1.17 1.172s0.525 1.172 1.172 1.172 1.172-0.525 1.172-1.172v0c-0.001-0.647-0.526-1.172-1.173-1.172h-0zM4.958 11.204c1.128 0.002 2.042 0.917 2.042 2.046 0 1.13-0.916 2.046-2.046 2.046s-2.046-0.916-2.046-2.046c0-0 0-0.001 0-0.001v0c0.003-1.13 0.92-2.045 2.050-2.045 0 0 0 0 0 0v0zM4.958 14.421c0.646-0.001 1.17-0.525 1.17-1.172s-0.525-1.172-1.172-1.172-1.172 0.525-1.172 1.172v0c0.001 0.648 0.526 1.172 1.174 1.172 0 0 0.001 0 0.001 0h-0zM19.946 12.423c0.456 0.001 0.825 0.371 0.825 0.826s-0.37 0.826-0.826 0.826-0.826-0.37-0.826-0.826c0-0 0-0.001 0-0.001v0c0.002-0.456 0.372-0.826 0.828-0.826 0 0 0 0 0 0h-0zM19.946 13.493c0.135-0 0.244-0.109 0.244-0.244s-0.109-0.244-0.244-0.244-0.244 0.109-0.244 0.244v0c0 0 0 0 0 0.001 0 0.135 0.109 0.244 0.244 0.244 0.001 0 0.001 0 0.002 0h-0zM23.344 12.423c0.456 0.001 0.825 0.371 0.825 0.826s-0.37 0.826-0.826 0.826-0.826-0.37-0.826-0.826c0-0 0-0.001 0-0.001v0c0.002-0.456 0.372-0.826 0.828-0.826 0 0 0.001 0 0.001 0h-0zM23.344 13.493c0.135-0 0.244-0.11 0.244-0.244s-0.109-0.244-0.244-0.244-0.244 0.109-0.244 0.244v0c0 0 0 0.001 0 0.001 0 0.134 0.109 0.243 0.244 0.243 0.001 0 0.001 0 0.002 0h-0zM26.698 12.423c0.456 0.001 0.825 0.371 0.825 0.826s-0.37 0.826-0.826 0.826-0.826-0.37-0.826-0.826c0-0 0-0.001 0-0.001v0c0.002-0.456 0.372-0.825 0.828-0.826v0zM26.698 13.493c0.135-0 0.244-0.109 0.244-0.244s-0.109-0.244-0.244-0.244-0.244 0.109-0.244 0.244v0c0 0 0 0 0 0.001 0 0.135 0.109 0.244 0.244 0.244 0 0 0.001 0 0.001 0h-0zM1.262 31.127h1.848c0.241 0 0.436 0.195 0.436 0.436s-0.195 0.436-0.436 0.436h-1.848c-0.241-0-0.436-0.196-0.436-0.436s0.195-0.436 0.436-0.436c0 0 0 0 0 0h-0zM4.618 31.127h1.848c0.241 0 0.436 0.195 0.436 0.436s-0.195 0.436-0.436 0.436h-1.848c-0.241-0-0.436-0.196-0.436-0.436s0.195-0.436 0.436-0.436c0 0 0 0 0 0h-0zM25.435 31.127h1.848c0.241 0 0.436 0.195 0.436 0.436s-0.195 0.436-0.436 0.436h-1.848c-0.241-0-0.436-0.196-0.436-0.436s0.195-0.436 0.436-0.436c0 0 0 0 0 0h-0zM28.597 31.127h1.848c0.241 0 0.436 0.195 0.436 0.436s-0.195 0.436-0.436 0.436h-1.848c-0.241 0-0.436-0.195-0.436-0.436s0.195-0.436 0.436-0.436v0z"></path>
</svg>
