<svg aria-hidden="true" style="position: absolute; width: 0; height: 0; overflow: hidden;" version="1.1" xmlns="http://www.w3.org/2000/svg" xmlns:xlink="http://www.w3.org/1999/xlink">
<defs>
<symbol id="icon-cloud" viewBox="0 0 32 32">
<title>cloud</title>
<path fill="#e6e7e8" style="fill: var(--color1, #e6e7e8)" d="M7.18 27.64h-3.861c-0.305 0-0.551-0.247-0.551-0.552s0.247-0.552 0.551-0.552h3.861c0.914 0 1.655-0.741 1.655-1.655v-8.273c0-0.304 0.247-0.552 0.552-0.552s0.552 0.247 0.552 0.552v8.273c-0.002 1.522-1.235 2.756-2.758 2.758z"></path>
<path fill="#e6e7e8" style="fill: var(--color1, #e6e7e8)" d="M16.005 29.846c-0.305 0-0.552-0.247-0.552-0.552v-12.686c0-0.304 0.247-0.552 0.552-0.552s0.552 0.247 0.552 0.552v12.686c0 0.304-0.247 0.552-0.552 0.552z"></path>
<path fill="#e6e7e8" style="fill: var(--color1, #e6e7e8)" d="M28.691 27.64h-3.861c-1.522-0.002-2.756-1.235-2.758-2.758v-8.273c0-0.304 0.247-0.552 0.552-0.552s0.552 0.247 0.552 0.552v8.273c0 0.914 0.741 1.655 1.655 1.655h3.861c0.304 0 0.552 0.247 0.552 0.552s-0.247 0.552-0.552 0.552z"></path>
<path fill="#57a4ff" style="fill: var(--color2, #57a4ff)" d="M32 12.196c-0.002-2.021-1.373-3.783-3.332-4.28-0.216-2.264-2.117-3.992-4.39-3.993-0.85-0.002-1.683 0.245-2.394 0.711-0.827-3.247-4.129-5.209-7.376-4.383-2.153 0.548-3.834 2.229-4.383 4.383-0.711-0.466-1.543-0.714-2.394-0.711-2.274 0.001-4.174 1.73-4.39 3.993-2.364 0.593-3.8 2.989-3.208 5.353 0.493 1.966 2.262 3.344 4.289 3.34h23.166c2.437 0 4.413-1.976 4.413-4.412z"></path>
<path fill="#9bc9ff" style="fill: var(--color3, #9bc9ff)" d="M16.005 32.053c0.914 0 1.655-0.741 1.655-1.655s-0.741-1.655-1.655-1.655c-0.914 0-1.655 0.741-1.655 1.655s0.741 1.655 1.655 1.655z"></path>
<path fill="#9bc9ff" style="fill: var(--color3, #9bc9ff)" d="M30.345 28.743c0.914 0 1.655-0.741 1.655-1.655s-0.741-1.655-1.655-1.655c-0.914 0-1.655 0.741-1.655 1.655s0.741 1.655 1.655 1.655z"></path>
<path fill="#9bc9ff" style="fill: var(--color3, #9bc9ff)" d="M1.664 25.434c-0.914 0-1.655 0.741-1.655 1.655s0.741 1.655 1.655 1.655c0.914 0 1.655-0.741 1.655-1.655s-0.741-1.655-1.655-1.655z"></path>
<path fill="#006df0" style="fill: var(--color4, #006df0)" d="M15.453 14.403h1.103v1.103h-1.103z"></path>
<path fill="#006df0" style="fill: var(--color4, #006df0)" d="M17.659 14.403h1.103v1.103h-1.103z"></path>
<path fill="#006df0" style="fill: var(--color4, #006df0)" d="M19.866 14.403h1.103v1.103h-1.103z"></path>
<path fill="#006df0" style="fill: var(--color4, #006df0)" d="M22.072 14.403h1.103v1.103h-1.103z"></path>
<path fill="#006df0" style="fill: var(--color4, #006df0)" d="M24.278 14.403h1.103v1.103h-1.103z"></path>
<path fill="#006df0" style="fill: var(--color4, #006df0)" d="M26.484 14.403h1.103v1.103h-1.103z"></path>
<path fill="#006df0" style="fill: var(--color4, #006df0)" d="M13.247 14.403h1.103v1.103h-1.103z"></path>
<path fill="#006df0" style="fill: var(--color4, #006df0)" d="M11.041 14.403h1.103v1.103h-1.103z"></path>
<path fill="#006df0" style="fill: var(--color4, #006df0)" d="M8.834 14.403h1.103v1.103h-1.103z"></path>
<path fill="#006df0" style="fill: var(--color4, #006df0)" d="M6.628 14.403h1.103v1.103h-1.103z"></path>
<path fill="#006df0" style="fill: var(--color4, #006df0)" d="M4.422 14.403h1.103v1.103h-1.103z"></path>
<path fill="#006df0" style="fill: var(--color4, #006df0)" d="M15.453 29.846h1.103v1.103h-1.103z"></path>
<path fill="#006df0" style="fill: var(--color4, #006df0)" d="M29.794 26.537h1.103v1.103h-1.103z"></path>
<path fill="#006df0" style="fill: var(--color4, #006df0)" d="M17.108 17.712h1.103v1.103h-1.103z"></path>
<path fill="#006df0" style="fill: var(--color4, #006df0)" d="M17.108 19.918h1.103v1.103h-1.103z"></path>
<path fill="#006df0" style="fill: var(--color4, #006df0)" d="M17.108 22.124h1.103v1.103h-1.103z"></path>
<path fill="#006df0" style="fill: var(--color4, #006df0)" d="M17.108 24.331h1.103v1.103h-1.103z"></path>
<path fill="#006df0" style="fill: var(--color4, #006df0)" d="M23.727 17.712h1.103v1.103h-1.103z"></path>
<path fill="#006df0" style="fill: var(--color4, #006df0)" d="M23.727 19.918h1.103v1.103h-1.103z"></path>
<path fill="#006df0" style="fill: var(--color4, #006df0)" d="M23.727 22.124h1.103v1.103h-1.103z"></path>
<path fill="#006df0" style="fill: var(--color4, #006df0)" d="M23.727 24.331h1.103v1.103h-1.103z"></path>
<path fill="#006df0" style="fill: var(--color4, #006df0)" d="M1.113 26.537h1.103v1.103h-1.103z"></path>
<path fill="#006df0" style="fill: var(--color4, #006df0)" d="M7.18 17.712h1.103v1.103h-1.103z"></path>
<path fill="#006df0" style="fill: var(--color4, #006df0)" d="M7.18 19.918h1.103v1.103h-1.103z"></path>
<path fill="#006df0" style="fill: var(--color4, #006df0)" d="M7.18 22.124h1.103v1.103h-1.103z"></path>
<path fill="#006df0" style="fill: var(--color4, #006df0)" d="M7.18 24.331h1.103v1.103h-1.103z"></path>
<path fill="#006df0" style="fill: var(--color4, #006df0)" d="M17.108 26.537h1.103v1.103h-1.103z"></path>
</symbol>
<symbol id="icon-com" viewBox="0 0 32 32">
<title>com</title>
<path d="M1.596 19.789v-2.096h-1.597v2.096h1.597zM3.114 17.481c0.38 0.967 1.117 1.725 2.045 2.123l0.025 0.009c0.474 0.203 1.026 0.322 1.606 0.322 0.022 0 0.045-0 0.067-0.001l-0.003 0q1.263 0 2.164-0.554c0.566-0.335 1.010-0.823 1.284-1.407l0.008-0.020-1.902-0.582c-0.138 0.274-0.35 0.494-0.61 0.637l-0.008 0.004c-0.273 0.165-0.602 0.262-0.955 0.262-0.004 0-0.008 0-0.012-0h0.001c-0.002 0-0.004 0-0.006 0-0.277 0-0.54-0.062-0.775-0.172l0.011 0.005c-0.249-0.117-0.459-0.276-0.629-0.471l-0.002-0.002c-0.179-0.206-0.324-0.448-0.423-0.712l-0.005-0.016c-0.101-0.267-0.16-0.576-0.16-0.899 0-0.011 0-0.023 0-0.034l-0 0.002c-0-0.010-0-0.021-0-0.032 0-0.322 0.056-0.631 0.159-0.918l-0.006 0.019c0.098-0.278 0.242-0.518 0.423-0.723l-0.002 0.002c0.173-0.194 0.383-0.351 0.62-0.461l0.012-0.005c0.23-0.106 0.5-0.168 0.783-0.168 0.33 0 0.64 0.083 0.911 0.23l-0.010-0.005c0.274 0.156 0.496 0.376 0.649 0.64l0.004 0.008 1.903-0.582c-0.302-0.593-0.75-1.073-1.299-1.404l-0.015-0.009q-0.879-0.539-2.128-0.539c-0.020-0-0.043-0.001-0.067-0.001-0.579 0-1.13 0.118-1.631 0.331l0.027-0.010c-0.492 0.211-0.912 0.502-1.263 0.859l-0.001 0.001c-0.339 0.348-0.61 0.765-0.79 1.227l-0.009 0.025c-0.175 0.442-0.276 0.954-0.276 1.49 0 0.008 0 0.017 0 0.025v-0.001c0 0.004-0 0.008-0 0.013 0 0.538 0.104 1.052 0.293 1.522l-0.010-0.027zM16.612 19.614c0.489-0.209 0.905-0.502 1.248-0.865l0.002-0.002c0.329-0.354 0.595-0.772 0.775-1.233l0.009-0.026c0.175-0.44 0.276-0.95 0.276-1.484 0-0.005 0-0.011-0-0.016v0.001c0-0.007 0-0.015 0-0.023 0-0.537-0.101-1.049-0.286-1.52l0.010 0.028c-0.19-0.488-0.458-0.907-0.793-1.261l0.002 0.002c-0.346-0.362-0.761-0.655-1.225-0.857l-0.024-0.009c-0.47-0.203-1.018-0.321-1.592-0.321-0.025 0-0.049 0-0.073 0.001l0.004-0c-0.020-0-0.043-0.001-0.067-0.001-0.579 0-1.13 0.118-1.631 0.331l0.027-0.010c-0.491 0.211-0.909 0.503-1.255 0.865l-0.001 0.001c-0.333 0.353-0.601 0.771-0.783 1.233l-0.009 0.026c-0.175 0.442-0.276 0.955-0.276 1.491 0 0.009 0 0.017 0 0.026v-0.001c-0 0.005-0 0.011-0 0.016 0 0.533 0.101 1.043 0.286 1.51l-0.010-0.028c0.19 0.488 0.458 0.907 0.793 1.261l-0.002-0.002c0.347 0.364 0.765 0.657 1.232 0.857l0.024 0.009c0.494 0.203 1.068 0.321 1.67 0.321s1.175-0.118 1.7-0.332l-0.030 0.011zM13.105 15.072c0.099-0.281 0.242-0.523 0.424-0.731l-0.002 0.003c0.174-0.198 0.383-0.359 0.62-0.475l0.012-0.005c0.226-0.111 0.491-0.175 0.771-0.175 0.005 0 0.009 0 0.014 0h-0.001c0.005-0 0.010-0 0.016-0 0.279 0 0.543 0.062 0.779 0.172l-0.011-0.005c0.249 0.116 0.46 0.276 0.63 0.471l0.002 0.002c0.178 0.205 0.321 0.447 0.416 0.711l0.005 0.016c0.097 0.266 0.152 0.573 0.152 0.894 0 0.008-0 0.017-0 0.025v-0.001c0 0.009 0 0.020 0 0.031 0 0.323-0.056 0.632-0.159 0.92l0.006-0.019c-0.1 0.281-0.243 0.522-0.424 0.731l0.002-0.003c-0.173 0.197-0.383 0.357-0.62 0.469l-0.012 0.005c-0.231 0.106-0.5 0.168-0.784 0.168s-0.554-0.062-0.796-0.173l0.012 0.005c-0.249-0.117-0.459-0.276-0.629-0.471l-0.002-0.002c-0.178-0.204-0.321-0.443-0.416-0.705l-0.005-0.016c-0.096-0.274-0.152-0.591-0.152-0.92s0.056-0.647 0.159-0.942l-0.006 0.020zM32.049 15.028c0-0.001 0-0.003 0-0.004 0-0.385-0.034-0.761-0.1-1.127l0.006 0.038c-0.061-0.361-0.18-0.683-0.349-0.974l0.007 0.014c-0.171-0.287-0.406-0.519-0.687-0.68l-0.009-0.005c-0.306-0.166-0.671-0.264-1.058-0.264-0.031 0-0.063 0.001-0.094 0.002l0.004-0c-0.017-0-0.038-0.001-0.058-0.001-0.577 0-1.117 0.154-1.583 0.423l0.015-0.008c-0.492 0.297-0.89 0.702-1.168 1.186l-0.008 0.016c-0.097-0.462-0.335-0.857-0.666-1.149l-0.002-0.002q-0.522-0.465-1.481-0.466c-0.019-0-0.041-0.001-0.064-0.001-0.59 0-1.146 0.149-1.632 0.41l0.018-0.009c-0.488 0.268-0.881 0.658-1.146 1.128l-0.008 0.015v-1.412h-1.758v7.629h1.946v-4.455c0.133-0.462 0.389-0.853 0.731-1.148l0.003-0.003c0.284-0.263 0.663-0.427 1.080-0.436l0.002-0c0.012-0.001 0.026-0.001 0.040-0.001 0.338 0 0.638 0.165 0.823 0.419l0.002 0.003q0.312 0.423 0.311 1.34v4.281h1.946v-4.441c0.135-0.462 0.387-0.854 0.724-1.155l0.002-0.002c0.284-0.269 0.667-0.436 1.088-0.444l0.002-0c0.012-0.001 0.026-0.001 0.040-0.001 0.338 0 0.637 0.165 0.822 0.419l0.002 0.003q0.312 0.423 0.312 1.34v4.281h1.946v-4.761z"></path>
</symbol>
<symbol id="icon-database" viewBox="0 0 32 32">
<title>database</title>
<path fill="#ffda44" style="fill: var(--color5, #ffda44)" d="M25.944 1.103h-2.771v6.621h8.828v-5.517h-4.414z"></path>
<path fill="#ffda44" style="fill: var(--color5, #ffda44)" d="M25.944 12.69h-2.771v6.621h8.828v-5.517h-4.414z"></path>
<path fill="#ffda44" style="fill: var(--color5, #ffda44)" d="M25.944 24.276h-2.771v6.621h8.828v-5.517h-4.414z"></path>
<path fill="#fff" style="fill: var(--color6, #fff)" d="M19.31 16c0 0.609-0.494 1.103-1.103 1.103s-1.103-0.494-1.103-1.103c0-0.609 0.494-1.103 1.103-1.103s1.103 0.494 1.103 1.103z"></path>
<path fill="#bddbff" style="fill: var(--color7, #bddbff)" d="M13.241 9.379c0-1.219-2.964-2.207-6.621-2.207s-6.621 0.988-6.621 2.207c0 1.219 2.964 2.207 6.621 2.207s6.621-0.988 6.621-2.207z"></path>
<path fill="#9bc9ff" style="fill: var(--color3, #9bc9ff)" d="M6.621 16c3.658 0 6.621-0.988 6.621-2.207v-4.414c0 1.219-2.963 2.207-6.621 2.207s-6.621-0.988-6.621-2.207v4.414c0 1.219 2.963 2.207 6.621 2.207z"></path>
<path fill="#57a4ff" style="fill: var(--color2, #57a4ff)" d="M6.621 20.414c3.658 0 6.621-0.988 6.621-2.207v-4.414c0 1.219-2.963 2.207-6.621 2.207s-6.621-0.988-6.621-2.207v4.414c0 1.219 2.963 2.207 6.621 2.207z"></path>
<path fill="#2488ff" style="fill: var(--color8, #2488ff)" d="M6.621 24.828c3.658 0 6.621-0.988 6.621-2.207v-4.414c0 1.219-2.963 2.207-6.621 2.207s-6.621-0.988-6.621-2.207v4.414c0 1.219 2.963 2.207 6.621 2.207z"></path>
<path fill="#006df0" style="fill: var(--color4, #006df0)" d="M18.207 17.655c-0.914 0-1.655-0.741-1.655-1.655s0.741-1.655 1.655-1.655c0.914 0 1.655 0.741 1.655 1.655s-0.741 1.655-1.655 1.655zM18.207 15.448c-0.305 0-0.552 0.247-0.552 0.552s0.247 0.552 0.552 0.552c0.305 0 0.552-0.247 0.552-0.552s-0.247-0.552-0.552-0.552z"></path>
<path fill="#006df0" style="fill: var(--color4, #006df0)" d="M14.897 15.448h2.207v1.103h-2.207z"></path>
<path fill="#006df0" style="fill: var(--color4, #006df0)" d="M19.31 15.448h2.207v1.103h-2.207z"></path>
<path fill="#006df0" style="fill: var(--color4, #006df0)" d="M18.759 14.897h-1.103v-11.034h3.862v1.103h-2.759z"></path>
<path fill="#006df0" style="fill: var(--color4, #006df0)" d="M21.517 28.138h-3.862v-11.034h1.103v9.931h2.759z"></path>
<path fill="#006df0" style="fill: var(--color4, #006df0)" d="M24.828 4.414h1.103v1.103h-1.103z"></path>
<path fill="#006df0" style="fill: var(--color4, #006df0)" d="M27.034 4.414h1.103v1.103h-1.103z"></path>
<path fill="#006df0" style="fill: var(--color4, #006df0)" d="M29.241 4.414h1.103v1.103h-1.103z"></path>
<path fill="#006df0" style="fill: var(--color4, #006df0)" d="M24.828 16h1.103v1.103h-1.103z"></path>
<path fill="#006df0" style="fill: var(--color4, #006df0)" d="M27.034 16h1.103v1.103h-1.103z"></path>
<path fill="#006df0" style="fill: var(--color4, #006df0)" d="M29.241 16h1.103v1.103h-1.103z"></path>
<path fill="#006df0" style="fill: var(--color4, #006df0)" d="M24.828 27.586h1.103v1.103h-1.103z"></path>
<path fill="#006df0" style="fill: var(--color4, #006df0)" d="M27.034 27.586h1.103v1.103h-1.103z"></path>
<path fill="#006df0" style="fill: var(--color4, #006df0)" d="M29.241 27.586h1.103v1.103h-1.103z"></path>
</symbol>
<symbol id="icon-down-arrow" viewBox="0 0 32 32">
<title>down-arrow</title>
<path d="M30.090 8.583c-0.397-0.397-1.042-0.397-1.439 0l-12.651 12.676-12.676-12.676c-0.397-0.397-1.042-0.397-1.439 0s-0.397 1.042 0 1.439l13.371 13.371c0.198 0.198 0.447 0.298 0.719 0.298 0.248 0 0.521-0.099 0.719-0.298l13.371-13.371c0.422-0.397 0.422-1.042 0.025-1.439z"></path>
</symbol>
<symbol id="icon-google-plus" viewBox="0 0 32 32">
<title>google-plus</title>
<path d="M20.694 0h-7.632c-3.401 0-5.755 0.746-7.873 2.496-1.666 1.438-2.661 3.527-2.661 5.589 0 3.177 2.422 6.554 6.911 6.554 0.432 0 0.909-0.044 1.331-0.084l-0.062 0.151c-0.18 0.432-0.351 0.84-0.351 1.477 0 1.239 0.598 2.004 1.176 2.742l0.073 0.094-0.129 0.009c-1.854 0.127-5.304 0.364-7.824 1.913-2.977 1.77-3.208 4.344-3.208 5.091 0 2.97 2.768 5.969 8.953 5.969 7.191 0 10.954-3.968 10.954-7.886 0.001-2.899-1.699-4.33-3.503-5.849l-1.522-1.184c-0.47-0.39-1.056-0.874-1.056-1.773 0-0.883 0.586-1.466 1.103-1.98l0.054-0.055c1.644-1.294 3.506-2.762 3.506-5.937 0-3.192-1.994-4.841-2.954-5.634h2.533c0.031 0 0.062-0.009 0.088-0.025l2.182-1.372c0.062-0.039 0.091-0.115 0.071-0.186s-0.085-0.119-0.158-0.119zM11.439 30.251c-4.384 0-7.329-2.047-7.329-5.095 0-1.99 1.205-3.436 3.577-4.295 1.9-0.639 4.353-0.671 4.377-0.671 0.415 0 0.624 0 0.956 0.042 3.067 2.183 4.542 3.329 4.542 5.512 0 2.781-2.347 4.508-6.123 4.508zM11.398 13.469c-3.679 0-5.206-4.836-5.206-7.425 0-1.317 0.299-2.327 0.915-3.090 0.669-0.836 1.813-1.377 2.917-1.377 3.378 0 5.246 4.54 5.246 7.678 0 0.495 0 2.001-1.040 3.047-0.7 0.698-1.838 1.167-2.832 1.167z"></path>
<path d="M31.39 14.946h-4.021v-4.007c0-0.091-0.074-0.165-0.165-0.165h-1.73c-0.091 0-0.165 0.074-0.165 0.165v4.007h-4.001c-0.091 0-0.165 0.074-0.165 0.165v1.753c0 0.091 0.074 0.165 0.165 0.165h4.001v4.033c0 0.091 0.074 0.165 0.165 0.165h1.73c0.091 0 0.165-0.074 0.165-0.165v-4.034h4.021c0.091 0 0.165-0.074 0.165-0.165v-1.752c0-0.092-0.074-0.165-0.165-0.165z"></path>
</symbol>
<symbol id="icon-instagram" viewBox="0 0 32 32">
<title>instagram</title>
<path d="M4.107 0h23.785c2.259 0 4.107 1.672 4.107 4.107v23.786c0 2.435-1.848 4.107-4.107 4.107h-23.785c-2.26 0-4.107-1.672-4.107-4.107v-23.786c0-2.435 1.848-4.107 4.107-4.107v0zM23.311 3.555c-0.792 0-1.44 0.648-1.44 1.441v3.448c0 0.792 0.648 1.441 1.44 1.441h3.617c0.792 0 1.441-0.648 1.441-1.441v-3.448c0-0.793-0.648-1.441-1.441-1.441h-3.617zM28.383 13.533h-2.816c0.266 0.87 0.411 1.792 0.411 2.745 0 5.323-4.454 9.637-9.947 9.637s-9.946-4.315-9.946-9.637c0-0.954 0.144-1.875 0.411-2.745h-2.939v13.517c0 0.7 0.572 1.272 1.272 1.272h22.284c0.7 0 1.272-0.572 1.272-1.272v-13.517h-0.001zM16.030 9.703c-3.549 0-6.427 2.788-6.427 6.227s2.878 6.227 6.427 6.227c3.549 0 6.427-2.788 6.427-6.227s-2.878-6.227-6.427-6.227z"></path>
</symbol>
<symbol id="icon-marker" viewBox="0 0 32 32">
<title>marker</title>
<path d="M16 0c-6.090 0-11.234 5.249-11.234 11.459 0 5.889 10.017 19.561 10.444 20.14 0.18 0.245 0.467 0.402 0.791 0.402s0.611-0.157 0.789-0.399l0.002-0.003c0.426-0.579 10.443-14.25 10.443-20.14 0-6.209-5.145-11.459-11.234-11.459zM16 4.902c3.611 0.019 6.531 2.95 6.531 6.563 0 3.625-2.939 6.563-6.563 6.563s-6.563-2.938-6.563-6.563v0c0.012-3.628 2.956-6.563 6.585-6.563 0.004 0 0.008 0 0.012 0h-0.001z"></path>
</symbol>
<symbol id="icon-monitoring" viewBox="0 0 32 32">
<title>monitoring</title>
<path fill="#808285" style="fill: var(--color9, #808285)" d="M20.357 28.743l-1.086 1.085h-6.505l-1.086-1.085h-11.39v1.085c0 1.2 0.971 2.171 2.171 2.171h27.115c1.2 0 2.171-0.971 2.171-2.171v-1.085z"></path>
<path fill="#ebe5dd" style="fill: var(--color10, #ebe5dd)" d="M12.766 29.825h6.509l1.086-1.086h10.305v-17.349h-29.286v17.353h10.305zM3.004 13.015h26.029zM26.866 22.777v2.171h-21.695v-2.171zM3.004 21.691v5.424z"></path>
<path fill="#ffd422" style="fill: var(--color11, #ffd422)" d="M5.171 22.777h21.691v2.171h-21.691z"></path>
<path fill="#d9ccbc" style="fill: var(--color12, #d9ccbc)" d="M3.547 18.439h-1.086v-5.967h27.115v5.934h-1.085v-4.848h-24.944z"></path>
<path fill="#d9ccbc" style="fill: var(--color12, #d9ccbc)" d="M29.576 27.658h-27.115v-5.967h1.086v4.881h24.944v-4.881h1.085z"></path>
<path fill="#c0ab91" style="fill: var(--color13, #c0ab91)" d="M28.49 19.524h1.085v1.086h-1.085z"></path>
<path fill="#c0ab91" style="fill: var(--color13, #c0ab91)" d="M2.461 19.524h1.086v1.086h-1.086z"></path>
<path fill="#006df0" style="fill: var(--color4, #006df0)" d="M24.695 10.305c-0.298 0-0.543-0.241-0.543-0.543v-1.167l-1.885-0.314c-0.216-0.037-0.392-0.2-0.441-0.412-0.147-0.637-0.396-1.249-0.743-1.8-0.118-0.188-0.11-0.424 0.016-0.604l1.11-1.551-0.886-0.886-1.551 1.11c-0.18 0.127-0.416 0.135-0.604 0.016-0.555-0.347-1.163-0.6-1.8-0.743-0.216-0.049-0.38-0.22-0.416-0.441l-0.314-1.885h-1.249l-0.31 1.885c-0.037 0.216-0.2 0.392-0.416 0.441-0.637 0.147-1.249 0.396-1.8 0.743-0.188 0.118-0.424 0.11-0.604-0.016l-1.551-1.11-0.886 0.886 1.11 1.551c0.126 0.18 0.135 0.416 0.016 0.604-0.347 0.555-0.6 1.163-0.743 1.8-0.049 0.212-0.224 0.38-0.441 0.412l-1.885 0.318v1.167c0 0.298-0.241 0.543-0.543 0.543-0.298 0-0.543-0.241-0.543-0.543v-1.632c0-0.265 0.192-0.49 0.453-0.535l1.987-0.335c0.143-0.51 0.347-1 0.604-1.465l-1.167-1.632c-0.155-0.216-0.131-0.51 0.057-0.698l1.534-1.535c0.188-0.188 0.482-0.212 0.698-0.057l1.636 1.171c0.461-0.257 0.955-0.461 1.465-0.608l0.33-1.987c0.045-0.261 0.269-0.453 0.535-0.453h2.171c0.265 0 0.49 0.192 0.535 0.453l0.335 1.987c0.51 0.143 1 0.347 1.465 0.604l1.637-1.171c0.216-0.155 0.51-0.131 0.698 0.057l1.534 1.534c0.188 0.188 0.212 0.482 0.057 0.698l-1.171 1.641c0.257 0.461 0.461 0.955 0.608 1.465l1.987 0.33c0.261 0.045 0.453 0.269 0.453 0.535v1.628c0 0.298-0.245 0.543-0.543 0.543z"></path>
<path fill="#006df0" style="fill: var(--color4, #006df0)" d="M19.814 9.762c-0.298 0-0.543-0.241-0.543-0.543 0-1.796-1.457-3.253-3.253-3.253s-3.253 1.457-3.253 3.253c0 0.298-0.241 0.543-0.543 0.543-0.298 0-0.543-0.241-0.543-0.543 0-2.396 1.943-4.338 4.338-4.338s4.338 1.942 4.338 4.338c0 0.298-0.241 0.543-0.543 0.543z"></path>
<path fill="#006df0" style="fill: var(--color4, #006df0)" d="M17.647 9.762c-0.298 0-0.543-0.241-0.543-0.543 0-0.6-0.486-1.085-1.086-1.085s-1.085 0.486-1.085 1.085c0 0.298-0.241 0.543-0.543 0.543-0.298 0-0.543-0.241-0.543-0.543 0-1.2 0.971-2.171 2.171-2.171s2.171 0.971 2.171 2.171c0 0.298-0.245 0.543-0.543 0.543z"></path>
<path fill="#c0ab91" style="fill: var(--color13, #c0ab91)" d="M27.409 25.487h-22.781v-3.253h22.777v3.253zM5.714 24.405h20.606v-1.086h-20.606z"></path>
<path fill="#ffd422" style="fill: var(--color11, #ffd422)" d="M4.628 19.524h1.085v2.171h-1.085z"></path>
<path fill="#ffd422" style="fill: var(--color11, #ffd422)" d="M6.799 18.439h1.085v3.253h-1.085z"></path>
<path fill="#ffd422" style="fill: var(--color11, #ffd422)" d="M8.97 17.353h1.086v4.338h-1.086z"></path>
<path fill="#ffd422" style="fill: var(--color11, #ffd422)" d="M11.137 19.524h1.085v2.171h-1.085z"></path>
<path fill="#ffd422" style="fill: var(--color11, #ffd422)" d="M13.309 17.353h1.085v4.338h-1.085z"></path>
<path fill="#ffd422" style="fill: var(--color11, #ffd422)" d="M26.323 15.186h1.086v6.509h-1.086z"></path>
<path fill="#ffd422" style="fill: var(--color11, #ffd422)" d="M24.152 16.267h1.086v5.424h-1.086z"></path>
<path fill="#ffd422" style="fill: var(--color11, #ffd422)" d="M21.985 18.439h1.086v3.253h-1.086z"></path>
<path fill="#ffd422" style="fill: var(--color11, #ffd422)" d="M19.814 17.353h1.086v4.338h-1.086z"></path>
<path fill="#ffd422" style="fill: var(--color11, #ffd422)" d="M17.647 16.267h1.085v5.424h-1.085z"></path>
<path fill="#ffd422" style="fill: var(--color11, #ffd422)" d="M15.476 18.439h1.086v3.253h-1.086z"></path>
</symbol>
<symbol id="icon-server" viewBox="0 0 32 32">
<title>server</title>
<path d="M28.111 25.348h-11.673v5.779h7.443c0.241 0 0.436 0.195 0.436 0.436s-0.195 0.436-0.436 0.436h-15.761c-0.241 0-0.436-0.195-0.436-0.436s0.195-0.436 0.436-0.436h7.443v-5.779h-11.673c-2.093-0.001-3.79-1.696-3.795-3.788v-11.865c0-0.034 0.002-0.068 0.006-0.101v0.004c0-0.008 0.003-0.015 0.004-0.025 0.003-0.023 0.007-0.045 0.012-0.070 0.002-0.009 0.005-0.017 0.007-0.027 0.006-0.023 0.012-0.044 0.019-0.064 0.003-0.009 0.007-0.019 0.011-0.028 0.008-0.021 0.016-0.040 0.025-0.061 0.003-0.006 0.005-0.011 0.007-0.017l4.377-8.822c0.147-0.29 0.442-0.485 0.784-0.485 0 0 0.001 0 0.001 0h21.304c0 0 0.001 0 0.001 0 0.341 0 0.637 0.195 0.781 0.48l0.002 0.005 4.377 8.822c0.003 0.006 0.005 0.011 0.007 0.017 0.009 0.021 0.018 0.040 0.025 0.061 0.004 0.009 0.007 0.019 0.011 0.028 0.007 0.021 0.013 0.042 0.019 0.064 0.002 0.009 0.005 0.017 0.007 0.027 0.005 0.025 0.009 0.047 0.012 0.070 0.001 0.009 0.003 0.017 0.004 0.025 0.003 0.029 0.005 0.062 0.006 0.096v11.865c-0.004 2.093-1.701 3.788-3.794 3.789v0zM26.109 1.748h-20.217l-3.51 7.072h27.237zM30.154 10.569h-28.308v5.658h28.308v-5.658zM30.154 17.975h-28.308v3.584c0.002 1.127 0.916 2.040 2.043 2.041h24.222c1.127-0.001 2.041-0.914 2.043-2.041v-3.585zM26.698 21.675c-0.456-0.001-0.825-0.371-0.825-0.826s0.37-0.826 0.826-0.826c0.456 0 0.826 0.369 0.826 0.826v0c-0.001 0.457-0.371 0.827-0.828 0.827v0zM26.698 20.603c-0.135 0-0.244 0.11-0.244 0.244s0.109 0.244 0.244 0.244 0.244-0.109 0.244-0.244v0c0-0.135-0.11-0.244-0.245-0.244v0zM23.344 21.675c-0.456-0.001-0.825-0.371-0.825-0.826s0.37-0.826 0.826-0.826c0.456 0 0.826 0.369 0.826 0.826v0c-0.001 0.457-0.371 0.827-0.827 0.827v0zM23.344 20.603c-0.135 0-0.244 0.109-0.244 0.244s0.109 0.244 0.244 0.244 0.244-0.109 0.244-0.244v0c0-0.135-0.109-0.244-0.244-0.244v0zM19.946 21.675c-0.456-0.001-0.825-0.371-0.825-0.826s0.37-0.826 0.826-0.826c0.456 0 0.826 0.369 0.826 0.826v0c-0.001 0.457-0.371 0.827-0.827 0.827v0zM19.946 20.603c-0.135 0-0.244 0.11-0.244 0.244s0.109 0.244 0.244 0.244 0.244-0.109 0.244-0.244v0c0-0.135-0.109-0.244-0.244-0.244v0zM4.958 22.894c-1.128-0.002-2.042-0.917-2.042-2.046 0-1.13 0.916-2.046 2.046-2.046s2.045 0.915 2.046 2.045v0c-0.002 1.13-0.918 2.046-2.049 2.047v0zM4.958 19.675c-0.646 0.001-1.17 0.525-1.17 1.172s0.525 1.172 1.172 1.172 1.172-0.525 1.172-1.172v0c-0.001-0.647-0.526-1.172-1.173-1.172v0zM4.958 11.204c1.128 0.002 2.042 0.917 2.042 2.046s-0.916 2.046-2.046 2.046-2.046-0.916-2.046-2.046c0 0 0-0.001 0-0.001v0c0.003-1.13 0.92-2.045 2.050-2.045 0 0 0 0 0 0v0zM4.958 14.421c0.646-0.001 1.17-0.525 1.17-1.172s-0.525-1.172-1.172-1.172-1.172 0.525-1.172 1.172v0c0.001 0.648 0.526 1.172 1.174 1.172 0 0 0.001 0 0.001 0v0zM19.946 12.423c0.456 0.001 0.825 0.371 0.825 0.826s-0.37 0.826-0.826 0.826-0.826-0.37-0.826-0.826c0 0 0-0.001 0-0.001v0c0.002-0.456 0.372-0.826 0.828-0.826 0 0 0 0 0 0v0zM19.946 13.493c0.135 0 0.244-0.109 0.244-0.244s-0.109-0.244-0.244-0.244-0.244 0.109-0.244 0.244v0c0 0 0 0 0 0.001 0 0.135 0.109 0.244 0.244 0.244 0.001 0 0.001 0 0.002 0v0zM23.344 12.423c0.456 0.001 0.825 0.371 0.825 0.826s-0.37 0.826-0.826 0.826-0.826-0.37-0.826-0.826c0 0 0-0.001 0-0.001v0c0.002-0.456 0.372-0.826 0.828-0.826 0 0 0.001 0 0.001 0v0zM23.344 13.493c0.135 0 0.244-0.11 0.244-0.244s-0.109-0.244-0.244-0.244-0.244 0.109-0.244 0.244v0c0 0 0 0.001 0 0.001 0 0.134 0.109 0.243 0.244 0.243 0.001 0 0.001 0 0.002 0v0zM26.698 12.423c0.456 0.001 0.825 0.371 0.825 0.826s-0.37 0.826-0.826 0.826-0.826-0.37-0.826-0.826c0 0 0-0.001 0-0.001v0c0.002-0.456 0.372-0.825 0.828-0.826v0zM26.698 13.493c0.135 0 0.244-0.109 0.244-0.244s-0.109-0.244-0.244-0.244-0.244 0.109-0.244 0.244v0c0 0 0 0 0 0.001 0 0.135 0.109 0.244 0.244 0.244 0 0 0.001 0 0.001 0v0zM1.262 31.127h1.848c0.241 0 0.436 0.195 0.436 0.436s-0.195 0.436-0.436 0.436h-1.848c-0.241 0-0.436-0.196-0.436-0.436s0.195-0.436 0.436-0.436c0 0 0 0 0 0v0zM4.618 31.127h1.848c0.241 0 0.436 0.195 0.436 0.436s-0.195 0.436-0.436 0.436h-1.848c-0.241 0-0.436-0.196-0.436-0.436s0.195-0.436 0.436-0.436c0 0 0 0 0 0v0zM25.435 31.127h1.848c0.241 0 0.436 0.195 0.436 0.436s-0.195 0.436-0.436 0.436h-1.848c-0.241 0-0.436-0.196-0.436-0.436s0.195-0.436 0.436-0.436c0 0 0 0 0 0v0zM28.597 31.127h1.848c0.241 0 0.436 0.195 0.436 0.436s-0.195 0.436-0.436 0.436h-1.848c-0.241 0-0.436-0.195-0.436-0.436s0.195-0.436 0.436-0.436v0z"></path>
</symbol>
<symbol id="icon-tech-service" viewBox="0 0 32 32">
<title>tech-service</title>
<path fill="#ffda44" style="fill: var(--color5, #ffda44)" d="M0 25.379h32v-20.966h-32zM9.931 13.793h1.793c0.103-0.399 0.263-0.782 0.474-1.137l-1.269-1.269 1.561-1.561 1.269 1.269c0.354-0.212 0.737-0.371 1.137-0.474v-1.793h2.207v1.793c0.399 0.103 0.782 0.263 1.137 0.474l1.269-1.269 1.561 1.561-1.269 1.269c0.212 0.354 0.372 0.737 0.474 1.137h1.793v2.207h-1.793c-0.103 0.399-0.263 0.782-0.474 1.137l1.269 1.269-1.561 1.561-1.269-1.269c-0.354 0.212-0.737 0.372-1.137 0.474v1.793h-2.207v-1.793c-0.399-0.103-0.782-0.263-1.137-0.474l-1.269 1.269-1.561-1.561 1.269-1.269c-0.212-0.354-0.371-0.737-0.474-1.137h-1.793z"></path>
<path fill="#ffcd00" style="fill: var(--color14, #ffcd00)" d="M0 1.103v3.31h13.241l-4.414-3.31z"></path>
<path fill="#5eac24" style="fill: var(--color15, #5eac24)" d="M30.897 27.586h-12.138v3.31h12.138c0.609 0 1.103-0.494 1.103-1.103v-1.103c0-0.609-0.494-1.103-1.103-1.103z"></path>
<path fill="#5eac24" style="fill: var(--color15, #5eac24)" d="M16.552 28.138v2.207h2.207v-2.207z"></path>
<path fill="#e0e0e2" style="fill: var(--color16, #e0e0e2)" d="M0 28.69v1.103l3.31 0.552v-2.207z"></path>
<path fill="#006df0" style="fill: var(--color4, #006df0)" d="M12.199 17.137l-1.269 1.269 1.561 1.561 1.269-1.269c0.354 0.212 0.737 0.372 1.137 0.474v1.793h2.207v-1.793c0.399-0.103 0.782-0.263 1.137-0.474l1.269 1.269 1.561-1.561-1.269-1.269c0.212-0.354 0.372-0.737 0.474-1.137h1.793v-2.207h-1.793c-0.103-0.399-0.263-0.782-0.474-1.137l1.269-1.269-1.561-1.561-1.269 1.269c-0.354-0.212-0.737-0.371-1.137-0.474v-1.793h-2.207v1.793c-0.399 0.103-0.782 0.263-1.137 0.474l-1.269-1.269-1.561 1.561 1.269 1.269c-0.212 0.354-0.371 0.737-0.474 1.137h-1.793v2.207h1.793c0.103 0.399 0.263 0.782 0.474 1.137zM16 12.69c1.219 0 2.207 0.988 2.207 2.207s-0.988 2.207-2.207 2.207c-1.219 0-2.207-0.988-2.207-2.207s0.988-2.207 2.207-2.207z"></path>
<path fill="#ffda44" style="fill: var(--color5, #ffda44)" d="M18.207 14.897c0 1.219-0.988 2.207-2.207 2.207s-2.207-0.988-2.207-2.207c0-1.219 0.988-2.207 2.207-2.207s2.207 0.988 2.207 2.207z"></path>
<path fill="#d9ccbc" style="fill: var(--color12, #d9ccbc)" d="M14.345 22.621h1.103v1.103h-1.103z"></path>
<path fill="#d9ccbc" style="fill: var(--color12, #d9ccbc)" d="M16.552 22.621h1.103v1.103h-1.103z"></path>
<path fill="#d9ccbc" style="fill: var(--color12, #d9ccbc)" d="M18.759 22.621h1.103v1.103h-1.103z"></path>
<path fill="#d9ccbc" style="fill: var(--color12, #d9ccbc)" d="M20.966 22.621h1.103v1.103h-1.103z"></path>
<path fill="#d9ccbc" style="fill: var(--color12, #d9ccbc)" d="M23.172 22.621h1.103v1.103h-1.103z"></path>
<path fill="#d9ccbc" style="fill: var(--color12, #d9ccbc)" d="M25.379 22.621h1.103v1.103h-1.103z"></path>
<path fill="#d9ccbc" style="fill: var(--color12, #d9ccbc)" d="M27.586 22.621h1.103v1.103h-1.103z"></path>
<path fill="#d9ccbc" style="fill: var(--color12, #d9ccbc)" d="M29.793 22.621h1.103v1.103h-1.103z"></path>
<path fill="#d9ccbc" style="fill: var(--color12, #d9ccbc)" d="M12.138 22.621h1.103v1.103h-1.103z"></path>
<path fill="#d9ccbc" style="fill: var(--color12, #d9ccbc)" d="M9.931 22.621h1.103v1.103h-1.103z"></path>
<path fill="#d9ccbc" style="fill: var(--color12, #d9ccbc)" d="M7.724 22.621h1.103v1.103h-1.103z"></path>
<path fill="#d9ccbc" style="fill: var(--color12, #d9ccbc)" d="M5.517 22.621h1.103v1.103h-1.103z"></path>
<path fill="#d9ccbc" style="fill: var(--color12, #d9ccbc)" d="M3.31 22.621h1.103v1.103h-1.103z"></path>
<path fill="#d9ccbc" style="fill: var(--color12, #d9ccbc)" d="M1.103 22.621h1.103v1.103h-1.103z"></path>
<path fill="#d9ccbc" style="fill: var(--color12, #d9ccbc)" d="M14.345 6.069h1.103v1.103h-1.103z"></path>
<path fill="#d9ccbc" style="fill: var(--color12, #d9ccbc)" d="M16.552 6.069h1.103v1.103h-1.103z"></path>
<path fill="#d9ccbc" style="fill: var(--color12, #d9ccbc)" d="M18.759 6.069h1.103v1.103h-1.103z"></path>
<path fill="#d9ccbc" style="fill: var(--color12, #d9ccbc)" d="M20.966 6.069h1.103v1.103h-1.103z"></path>
<path fill="#d9ccbc" style="fill: var(--color12, #d9ccbc)" d="M23.172 6.069h1.103v1.103h-1.103z"></path>
<path fill="#d9ccbc" style="fill: var(--color12, #d9ccbc)" d="M25.379 6.069h1.103v1.103h-1.103z"></path>
<path fill="#d9ccbc" style="fill: var(--color12, #d9ccbc)" d="M27.586 6.069h1.103v1.103h-1.103z"></path>
<path fill="#d9ccbc" style="fill: var(--color12, #d9ccbc)" d="M29.793 6.069h1.103v1.103h-1.103z"></path>
<path fill="#d9ccbc" style="fill: var(--color12, #d9ccbc)" d="M12.138 6.069h1.103v1.103h-1.103z"></path>
<path fill="#d9ccbc" style="fill: var(--color12, #d9ccbc)" d="M9.931 6.069h1.103v1.103h-1.103z"></path>
<path fill="#d9ccbc" style="fill: var(--color12, #d9ccbc)" d="M7.724 6.069h1.103v1.103h-1.103z"></path>
<path fill="#d9ccbc" style="fill: var(--color12, #d9ccbc)" d="M5.517 6.069h1.103v1.103h-1.103z"></path>
<path fill="#d9ccbc" style="fill: var(--color12, #d9ccbc)" d="M3.31 6.069h1.103v1.103h-1.103z"></path>
<path fill="#d9ccbc" style="fill: var(--color12, #d9ccbc)" d="M1.103 6.069h1.103v1.103h-1.103z"></path>
<path fill="#c6c5ca" style="fill: var(--color17, #c6c5ca)" d="M3.31 28.69h13.241v1.103h-13.241z"></path>
<path fill="#a4e276" style="fill: var(--color18, #a4e276)" d="M27.034 28.69h1.103v1.103h-1.103z"></path>
<path fill="#a4e276" style="fill: var(--color18, #a4e276)" d="M29.241 28.69h1.103v1.103h-1.103z"></path>
<path fill="#a4e276" style="fill: var(--color18, #a4e276)" d="M24.828 28.69h1.103v1.103h-1.103z"></path>
<path fill="#a4e276" style="fill: var(--color18, #a4e276)" d="M22.621 28.69h1.103v1.103h-1.103z"></path>
<path fill="#a4e276" style="fill: var(--color18, #a4e276)" d="M20.414 28.69h1.103v1.103h-1.103z"></path>
</symbol>
<symbol id="icon-three-dots" viewBox="0 0 32 32">
<title>three-dots</title>
<path d="M27.092 32.023c-1.341-0.366-2.311-1.573-2.311-3.006 0-0.753 0.268-1.444 0.713-1.982l-0.004 0.005-3.783-5.33c-0.741 0.386-1.619 0.612-2.549 0.612-2.068 0-3.874-1.117-4.85-2.781l-0.014-0.026-7.043 2.793c0.013 0.107 0.020 0.23 0.020 0.355 0 1.725-1.399 3.124-3.124 3.124s-3.124-1.399-3.124-3.124c0-1.725 1.399-3.124 3.124-3.124 1.017 0 1.921 0.486 2.491 1.239l0.006 0.008 7.042-2.793c-0.096-0.389-0.151-0.835-0.151-1.294 0-3.101 2.514-5.614 5.614-5.614 0.231 0 0.459 0.014 0.682 0.041l-0.027-0.003 1.425-5.319c-0.932-0.55-1.547-1.55-1.547-2.692 0-1.721 1.395-3.117 3.117-3.117s3.117 1.395 3.117 3.117c0 1.717-1.388 3.109-3.102 3.117h-0.001l-1.425 5.319c2.013 0.883 3.394 2.858 3.394 5.156 0 1.596-0.666 3.037-1.736 4.059l-0.002 0.002 3.782 5.329c0.319-0.121 0.687-0.19 1.072-0.19 1.72 0 3.114 1.394 3.114 3.114s-1.394 3.114-3.114 3.114c-0.287 0-0.565-0.039-0.829-0.112l0.022 0.005zM4.537 21.229c-0.114-0.032-0.245-0.050-0.38-0.050-0.815 0-1.475 0.66-1.475 1.475s0.66 1.475 1.475 1.475c0.679 0 1.251-0.459 1.423-1.083l0.002-0.010c0.032-0.114 0.050-0.245 0.050-0.38 0-0.68-0.459-1.253-1.085-1.425l-0.010-0.002zM24.226 3.496c0.032-0.115 0.051-0.247 0.051-0.384 0-0.816-0.661-1.477-1.477-1.477s-1.477 0.661-1.477 1.477c0 0.68 0.46 1.253 1.085 1.424l0.010 0.002c0.114 0.032 0.245 0.050 0.38 0.050 0.679 0 1.251-0.458 1.424-1.082l0.002-0.010zM20.189 12.859c-0.308-0.085-0.661-0.135-1.026-0.135-2.198 0-3.98 1.782-3.98 3.98s1.782 3.98 3.98 3.98c1.832 0 3.375-1.237 3.838-2.922l0.007-0.028c0.085-0.308 0.134-0.661 0.134-1.026 0-1.834-1.238-3.379-2.925-3.844l-0.028-0.007zM28.278 27.591c-0.114-0.032-0.245-0.050-0.38-0.050-0.815 0-1.475 0.66-1.475 1.475s0.66 1.475 1.475 1.475c0.679 0 1.251-0.459 1.422-1.083l0.002-0.010c0.032-0.114 0.050-0.245 0.050-0.38 0-0.68-0.459-1.252-1.084-1.425l-0.010-0.002z"></path>
</symbol>
<symbol id="icon-three-dots-aligned" viewBox="0 0 32 32">
<title>three-dots-aligned</title>
<path d="M28.763 31.484c-0.001 0-0.003 0-0.004 0-1.781 0-3.226-1.441-3.232-3.22v-0.001c0-0.001 0-0.003 0-0.005 0-0.481 0.107-0.937 0.298-1.346l-0.008 0.020-5.227-4.315c-1.030 0.929-2.401 1.497-3.904 1.497-1.609 0-3.066-0.651-4.123-1.703v0l-6.313 4.676c0.142 0.347 0.224 0.751 0.224 1.173 0 0.001 0 0.003 0 0.004v0c0 0.005 0 0.010 0 0.015 0 1.787-1.449 3.236-3.236 3.236s-3.236-1.449-3.236-3.236c0-1.787 1.449-3.236 3.236-3.236v0c0.754 0.001 1.449 0.257 2.002 0.687l-0.007-0.006 6.313-4.676c-0.439-0.792-0.698-1.737-0.698-2.742 0-0.005 0-0.010 0-0.015v0.001c0.012-2.914 2.159-5.323 4.957-5.746l0.032-0.004v-5.698c-1.385-0.387-2.385-1.638-2.385-3.122 0-1.787 1.449-3.236 3.236-3.236s3.236 1.449 3.236 3.236c0 1.484-0.999 2.735-2.362 3.117l-0.023 0.005v5.698c2.836 0.415 4.989 2.83 4.989 5.749 0 1.119-0.317 2.164-0.865 3.050l0.014-0.025 5.227 4.315c0.519-0.373 1.168-0.597 1.869-0.597 1.781 0 3.225 1.444 3.225 3.225s-1.444 3.225-3.225 3.225c-0.004 0-0.007 0-0.011 0h0.001zM3.237 26.735c-0.842 0.003-1.523 0.686-1.523 1.528 0 0.844 0.684 1.528 1.528 1.528s1.528-0.684 1.528-1.528v0c-0.001-0.844-0.686-1.528-1.53-1.528-0.001 0-0.002 0-0.003 0v0zM18.22 3.737c0-0.002 0-0.004 0-0.006 0-0.847-0.687-1.534-1.534-1.534s-1.534 0.687-1.534 1.534c0 0.847 0.687 1.534 1.534 1.534 0 0 0.001 0 0.001 0v0c0.844-0.002 1.528-0.684 1.533-1.527v0zM16.687 14.173c-2.267 0.011-4.1 1.851-4.1 4.119 0 2.275 1.844 4.119 4.119 4.119s4.119-1.844 4.119-4.119v0c-0.006-2.276-1.852-4.119-4.129-4.119-0.003 0-0.006 0-0.009 0v0zM28.765 26.735c-0.841 0.004-1.522 0.686-1.522 1.528 0 0.844 0.684 1.528 1.528 1.528s1.528-0.684 1.528-1.528v0c-0.001-0.844-0.686-1.528-1.53-1.528-0.002 0-0.004 0-0.007 0v0z"></path>
</symbol>
<symbol id="icon-twitter" viewBox="0 0 32 32">
<title>twitter</title>
<path d="M32 6.079c-1.178 0.522-2.442 0.876-3.769 1.034 1.356-0.812 2.394-2.1 2.885-3.629-1.272 0.752-2.675 1.298-4.171 1.594-1.198-1.278-2.901-2.074-4.791-2.074-3.625 0-6.565 2.939-6.565 6.563 0 0.514 0.058 1.016 0.17 1.496-5.455-0.274-10.292-2.887-13.529-6.859-0.566 0.968-0.888 2.096-0.888 3.299 0 2.278 1.16 4.287 2.919 5.463-1.076-0.036-2.088-0.332-2.973-0.824v0.082c0 3.179 2.264 5.833 5.265 6.437-0.55 0.148-1.13 0.23-1.73 0.23-0.424 0-0.834-0.042-1.236-0.122 0.836 2.61 3.259 4.507 6.131 4.559-2.246 1.76-5.077 2.805-8.152 2.805-0.53 0-1.052-0.032-1.566-0.090 2.905 1.866 6.355 2.953 10.062 2.953 12.076 0 18.677-10.002 18.677-18.677l-0.022-0.85c1.29-0.92 2.405-2.076 3.283-3.391z"></path>
</symbol>
</defs>
</svg>
