<!-- Generated by IcoMoon.io -->
<svg version="1.1" xmlns="http://www.w3.org/2000/svg" width="32" height="32" viewBox="0 0 32 32">
<title>tech-service</title>
<path fill="#ffda44" d="M0 25.379h32v-20.966h-32zM9.931 13.793h1.793c0.103-0.399 0.263-0.782 0.474-1.137l-1.269-1.269 1.561-1.561 1.269 1.269c0.354-0.212 0.737-0.371 1.137-0.474v-1.793h2.207v1.793c0.399 0.103 0.782 0.263 1.137 0.474l1.269-1.269 1.561 1.561-1.269 1.269c0.212 0.354 0.372 0.737 0.474 1.137h1.793v2.207h-1.793c-0.103 0.399-0.263 0.782-0.474 1.137l1.269 1.269-1.561 1.561-1.269-1.269c-0.354 0.212-0.737 0.372-1.137 0.474v1.793h-2.207v-1.793c-0.399-0.103-0.782-0.263-1.137-0.474l-1.269 1.269-1.561-1.561 1.269-1.269c-0.212-0.354-0.371-0.737-0.474-1.137h-1.793z"></path>
<path fill="#ffcd00" d="M0 1.103v3.31h13.241l-4.414-3.31z"></path>
<path fill="#5eac24" d="M30.897 27.586h-12.138v3.31h12.138c0.609 0 1.103-0.494 1.103-1.103v-1.103c0-0.609-0.494-1.103-1.103-1.103z"></path>
<path fill="#5eac24" d="M16.552 28.138v2.207h2.207v-2.207z"></path>
<path fill="#e0e0e2" d="M0 28.69v1.103l3.31 0.552v-2.207z"></path>
<path fill="#006df0" d="M12.199 17.137l-1.269 1.269 1.561 1.561 1.269-1.269c0.354 0.212 0.737 0.372 1.137 0.474v1.793h2.207v-1.793c0.399-0.103 0.782-0.263 1.137-0.474l1.269 1.269 1.561-1.561-1.269-1.269c0.212-0.354 0.372-0.737 0.474-1.137h1.793v-2.207h-1.793c-0.103-0.399-0.263-0.782-0.474-1.137l1.269-1.269-1.561-1.561-1.269 1.269c-0.354-0.212-0.737-0.371-1.137-0.474v-1.793h-2.207v1.793c-0.399 0.103-0.782 0.263-1.137 0.474l-1.269-1.269-1.561 1.561 1.269 1.269c-0.212 0.354-0.371 0.737-0.474 1.137h-1.793v2.207h1.793c0.103 0.399 0.263 0.782 0.474 1.137zM16 12.69c1.219 0 2.207 0.988 2.207 2.207s-0.988 2.207-2.207 2.207c-1.219 0-2.207-0.988-2.207-2.207s0.988-2.207 2.207-2.207z"></path>
<path fill="#ffda44" d="M18.207 14.897c0 1.219-0.988 2.207-2.207 2.207s-2.207-0.988-2.207-2.207c0-1.219 0.988-2.207 2.207-2.207s2.207 0.988 2.207 2.207z"></path>
<path fill="#d9ccbc" d="M14.345 22.621h1.103v1.103h-1.103z"></path>
<path fill="#d9ccbc" d="M16.552 22.621h1.103v1.103h-1.103z"></path>
<path fill="#d9ccbc" d="M18.759 22.621h1.103v1.103h-1.103z"></path>
<path fill="#d9ccbc" d="M20.966 22.621h1.103v1.103h-1.103z"></path>
<path fill="#d9ccbc" d="M23.172 22.621h1.103v1.103h-1.103z"></path>
<path fill="#d9ccbc" d="M25.379 22.621h1.103v1.103h-1.103z"></path>
<path fill="#d9ccbc" d="M27.586 22.621h1.103v1.103h-1.103z"></path>
<path fill="#d9ccbc" d="M29.793 22.621h1.103v1.103h-1.103z"></path>
<path fill="#d9ccbc" d="M12.138 22.621h1.103v1.103h-1.103z"></path>
<path fill="#d9ccbc" d="M9.931 22.621h1.103v1.103h-1.103z"></path>
<path fill="#d9ccbc" d="M7.724 22.621h1.103v1.103h-1.103z"></path>
<path fill="#d9ccbc" d="M5.517 22.621h1.103v1.103h-1.103z"></path>
<path fill="#d9ccbc" d="M3.31 22.621h1.103v1.103h-1.103z"></path>
<path fill="#d9ccbc" d="M1.103 22.621h1.103v1.103h-1.103z"></path>
<path fill="#d9ccbc" d="M14.345 6.069h1.103v1.103h-1.103z"></path>
<path fill="#d9ccbc" d="M16.552 6.069h1.103v1.103h-1.103z"></path>
<path fill="#d9ccbc" d="M18.759 6.069h1.103v1.103h-1.103z"></path>
<path fill="#d9ccbc" d="M20.966 6.069h1.103v1.103h-1.103z"></path>
<path fill="#d9ccbc" d="M23.172 6.069h1.103v1.103h-1.103z"></path>
<path fill="#d9ccbc" d="M25.379 6.069h1.103v1.103h-1.103z"></path>
<path fill="#d9ccbc" d="M27.586 6.069h1.103v1.103h-1.103z"></path>
<path fill="#d9ccbc" d="M29.793 6.069h1.103v1.103h-1.103z"></path>
<path fill="#d9ccbc" d="M12.138 6.069h1.103v1.103h-1.103z"></path>
<path fill="#d9ccbc" d="M9.931 6.069h1.103v1.103h-1.103z"></path>
<path fill="#d9ccbc" d="M7.724 6.069h1.103v1.103h-1.103z"></path>
<path fill="#d9ccbc" d="M5.517 6.069h1.103v1.103h-1.103z"></path>
<path fill="#d9ccbc" d="M3.31 6.069h1.103v1.103h-1.103z"></path>
<path fill="#d9ccbc" d="M1.103 6.069h1.103v1.103h-1.103z"></path>
<path fill="#c6c5ca" d="M3.31 28.69h13.241v1.103h-13.241z"></path>
<path fill="#a4e276" d="M27.034 28.69h1.103v1.103h-1.103z"></path>
<path fill="#a4e276" d="M29.241 28.69h1.103v1.103h-1.103z"></path>
<path fill="#a4e276" d="M24.828 28.69h1.103v1.103h-1.103z"></path>
<path fill="#a4e276" d="M22.621 28.69h1.103v1.103h-1.103z"></path>
<path fill="#a4e276" d="M20.414 28.69h1.103v1.103h-1.103z"></path>
</svg>
