<!-- Generated by IcoMoon.io -->
<svg version="1.1" xmlns="http://www.w3.org/2000/svg" width="32" height="32" viewBox="0 0 32 32">
<title>three-dots-aligned</title>
<path d="M28.763 31.484c-0.001 0-0.003 0-0.004 0-1.781 0-3.226-1.441-3.232-3.22v-0.001c0-0.001 0-0.003 0-0.005 0-0.481 0.107-0.937 0.298-1.346l-0.008 0.020-5.227-4.315c-1.030 0.929-2.401 1.497-3.904 1.497-1.609 0-3.066-0.651-4.123-1.703l0 0-6.313 4.676c0.142 0.347 0.224 0.751 0.224 1.173 0 0.001 0 0.003 0 0.004v-0c0 0.005 0 0.010 0 0.015 0 1.787-1.449 3.236-3.236 3.236s-3.236-1.449-3.236-3.236c0-1.787 1.449-3.236 3.236-3.236v0c0.754 0.001 1.449 0.257 2.002 0.687l-0.007-0.006 6.313-4.676c-0.439-0.792-0.698-1.737-0.698-2.742 0-0.005 0-0.010 0-0.015v0.001c0.012-2.914 2.159-5.323 4.957-5.746l0.032-0.004v-5.698c-1.385-0.387-2.385-1.638-2.385-3.122 0-1.787 1.449-3.236 3.236-3.236s3.236 1.449 3.236 3.236c0 1.484-0.999 2.735-2.362 3.117l-0.023 0.005v5.698c2.836 0.415 4.989 2.83 4.989 5.749 0 1.119-0.317 2.164-0.865 3.050l0.014-0.025 5.227 4.315c0.519-0.373 1.168-0.597 1.869-0.597 1.781 0 3.225 1.444 3.225 3.225s-1.444 3.225-3.225 3.225c-0.004 0-0.007 0-0.011-0h0.001zM3.237 26.735c-0.842 0.003-1.523 0.686-1.523 1.528 0 0.844 0.684 1.528 1.528 1.528s1.528-0.684 1.528-1.528v0c-0.001-0.844-0.686-1.528-1.53-1.528-0.001 0-0.002 0-0.003 0h0zM18.22 3.737c0-0.002 0-0.004 0-0.006 0-0.847-0.687-1.534-1.534-1.534s-1.534 0.687-1.534 1.534c0 0.847 0.687 1.534 1.534 1.534 0 0 0.001 0 0.001 0h-0c0.844-0.002 1.528-0.684 1.533-1.527v-0zM16.687 14.173c-2.267 0.011-4.1 1.851-4.1 4.119 0 2.275 1.844 4.119 4.119 4.119s4.119-1.844 4.119-4.119v0c-0.006-2.276-1.852-4.119-4.129-4.119-0.003 0-0.006 0-0.009 0h0zM28.765 26.735c-0.841 0.004-1.522 0.686-1.522 1.528 0 0.844 0.684 1.528 1.528 1.528s1.528-0.684 1.528-1.528v0c-0.001-0.844-0.686-1.528-1.53-1.528-0.002 0-0.004 0-0.007 0h0z"></path>
</svg>
