<!-- Generated by IcoMoon.io -->
<svg version="1.1" xmlns="http://www.w3.org/2000/svg" width="32" height="32" viewBox="0 0 32 32">
<title>three-dots</title>
<path d="M27.092 32.023c-1.341-0.366-2.311-1.573-2.311-3.006 0-0.753 0.268-1.444 0.713-1.982l-0.004 0.005-3.783-5.33c-0.741 0.386-1.619 0.612-2.549 0.612-2.068 0-3.874-1.117-4.85-2.781l-0.014-0.026-7.043 2.793c0.013 0.107 0.020 0.23 0.020 0.355 0 1.725-1.399 3.124-3.124 3.124s-3.124-1.399-3.124-3.124c0-1.725 1.399-3.124 3.124-3.124 1.017 0 1.921 0.486 2.491 1.239l0.006 0.008 7.042-2.793c-0.096-0.389-0.151-0.835-0.151-1.294 0-3.101 2.514-5.614 5.614-5.614 0.231 0 0.459 0.014 0.682 0.041l-0.027-0.003 1.425-5.319c-0.932-0.55-1.547-1.55-1.547-2.692 0-1.721 1.395-3.117 3.117-3.117s3.117 1.395 3.117 3.117c0 1.717-1.388 3.109-3.102 3.117h-0.001l-1.425 5.319c2.013 0.883 3.394 2.858 3.394 5.156 0 1.596-0.666 3.037-1.736 4.059l-0.002 0.002 3.782 5.329c0.319-0.121 0.687-0.19 1.072-0.19 1.72 0 3.114 1.394 3.114 3.114s-1.394 3.114-3.114 3.114c-0.287 0-0.565-0.039-0.829-0.112l0.022 0.005zM4.537 21.229c-0.114-0.032-0.245-0.050-0.38-0.050-0.815 0-1.475 0.66-1.475 1.475s0.66 1.475 1.475 1.475c0.679 0 1.251-0.459 1.423-1.083l0.002-0.010c0.032-0.114 0.050-0.245 0.050-0.38 0-0.68-0.459-1.253-1.085-1.425l-0.010-0.002zM24.226 3.496c0.032-0.115 0.051-0.247 0.051-0.384 0-0.816-0.661-1.477-1.477-1.477s-1.477 0.661-1.477 1.477c0 0.68 0.46 1.253 1.085 1.424l0.010 0.002c0.114 0.032 0.245 0.050 0.38 0.050 0.679 0 1.251-0.458 1.424-1.082l0.002-0.010zM20.189 12.859c-0.308-0.085-0.661-0.135-1.026-0.135-2.198 0-3.98 1.782-3.98 3.98s1.782 3.98 3.98 3.98c1.832 0 3.375-1.237 3.838-2.922l0.007-0.028c0.085-0.308 0.134-0.661 0.134-1.026 0-1.834-1.238-3.379-2.925-3.844l-0.028-0.007zM28.278 27.591c-0.114-0.032-0.245-0.050-0.38-0.050-0.815 0-1.475 0.66-1.475 1.475s0.66 1.475 1.475 1.475c0.679 0 1.251-0.459 1.422-1.083l0.002-0.010c0.032-0.114 0.050-0.245 0.050-0.38 0-0.68-0.459-1.252-1.084-1.425l-0.010-0.002z"></path>
</svg>
