<?xml version="1.0" standalone="no"?>
<!DOCTYPE svg PUBLIC "-//W3C//DTD SVG 20010904//EN"
 "http://www.w3.org/TR/2001/REC-SVG-20010904/DTD/svg10.dtd">
<svg version="1.0" xmlns="http://www.w3.org/2000/svg"
 width="700.000000pt" height="700.000000pt" viewBox="0 0 700.000000 700.000000"
 preserveAspectRatio="xMidYMid meet">
<metadata>
Created by potrace 1.11, written by Peter Selinger 2001-2013
</metadata>
<g transform="translate(0.000000,700.000000) scale(0.100000,-0.100000)"
fill="#000000" stroke="none">
<path d="M3035 6989 c-1119 -64 -2024 -314 -2462 -682 -119 -100 -190 -198
-224 -307 -19 -63 -19 -92 -17 -941 l3 -876 42 -84 c178 -357 810 -656 1733
-819 649 -114 1479 -142 2206 -75 779 72 1498 264 1901 507 211 127 336 246
406 387 l42 84 3 876 c2 849 2 878 -17 941 -80 261 -425 507 -971 692 -473
160 -1055 260 -1744 298 -204 11 -694 11 -901 -1z"/>
<path d="M330 1851 c0 -759 1 -791 20 -853 131 -426 956 -793 2105 -937 363
-46 547 -56 1045 -56 498 0 682 10 1045 56 1151 144 1977 512 2105 939 20 63
20 92 18 855 -3 762 -4 788 -20 735 -223 -716 -2265 -1174 -4183 -939 -1154
142 -1987 511 -2111 937 -9 28 -17 52 -20 52 -2 0 -4 -355 -4 -789z"/>
</g>
</svg>
