<!-- Generated by IcoMoon.io -->
<svg version="1.1" xmlns="http://www.w3.org/2000/svg" width="32" height="32" viewBox="0 0 32 32">
<title>marker</title>
<path d="M16 0c-6.090 0-11.234 5.249-11.234 11.459 0 5.889 10.017 19.561 10.444 20.14 0.18 0.245 0.467 0.402 0.791 0.402s0.611-0.157 0.789-0.399l0.002-0.003c0.426-0.579 10.443-14.25 10.443-20.14 0-6.209-5.145-11.459-11.234-11.459zM16 4.902c3.611 0.019 6.531 2.95 6.531 6.563 0 3.625-2.939 6.563-6.563 6.563s-6.563-2.938-6.563-6.563v0c0.012-3.628 2.956-6.563 6.585-6.563 0.004 0 0.008 0 0.012 0h-0.001z"></path>
</svg>
