<!-- Generated by IcoMoon.io -->
<svg version="1.1" xmlns="http://www.w3.org/2000/svg" width="32" height="32" viewBox="0 0 32 32">
<title>monitoring</title>
<path fill="#808285" d="M20.357 28.743l-1.086 1.085h-6.505l-1.086-1.085h-11.39v1.085c0 1.2 0.971 2.171 2.171 2.171h27.115c1.2 0 2.171-0.971 2.171-2.171v-1.085z"></path>
<path fill="#ebe5dd" d="M12.766 29.825h6.509l1.086-1.086h10.305v-17.349h-29.286v17.353h10.305zM3.004 13.015h26.029zM26.866 22.777v2.171h-21.695v-2.171zM3.004 21.691v5.424z"></path>
<path fill="#ffd422" d="M5.171 22.777h21.691v2.171h-21.691z"></path>
<path fill="#d9ccbc" d="M3.547 18.439h-1.086v-5.967h27.115v5.934h-1.085v-4.848h-24.944z"></path>
<path fill="#d9ccbc" d="M29.576 27.658h-27.115v-5.967h1.086v4.881h24.944v-4.881h1.085z"></path>
<path fill="#c0ab91" d="M28.49 19.524h1.085v1.086h-1.085z"></path>
<path fill="#c0ab91" d="M2.461 19.524h1.086v1.086h-1.086z"></path>
<path fill="#006df0" d="M24.695 10.305c-0.298 0-0.543-0.241-0.543-0.543v-1.167l-1.885-0.314c-0.216-0.037-0.392-0.2-0.441-0.412-0.147-0.637-0.396-1.249-0.743-1.8-0.118-0.188-0.11-0.424 0.016-0.604l1.11-1.551-0.886-0.886-1.551 1.11c-0.18 0.127-0.416 0.135-0.604 0.016-0.555-0.347-1.163-0.6-1.8-0.743-0.216-0.049-0.38-0.22-0.416-0.441l-0.314-1.885h-1.249l-0.31 1.885c-0.037 0.216-0.2 0.392-0.416 0.441-0.637 0.147-1.249 0.396-1.8 0.743-0.188 0.118-0.424 0.11-0.604-0.016l-1.551-1.11-0.886 0.886 1.11 1.551c0.126 0.18 0.135 0.416 0.016 0.604-0.347 0.555-0.6 1.163-0.743 1.8-0.049 0.212-0.224 0.38-0.441 0.412l-1.885 0.318v1.167c0 0.298-0.241 0.543-0.543 0.543-0.298 0-0.543-0.241-0.543-0.543v-1.632c0-0.265 0.192-0.49 0.453-0.535l1.987-0.335c0.143-0.51 0.347-1 0.604-1.465l-1.167-1.632c-0.155-0.216-0.131-0.51 0.057-0.698l1.534-1.535c0.188-0.188 0.482-0.212 0.698-0.057l1.636 1.171c0.461-0.257 0.955-0.461 1.465-0.608l0.33-1.987c0.045-0.261 0.269-0.453 0.535-0.453h2.171c0.265 0 0.49 0.192 0.535 0.453l0.335 1.987c0.51 0.143 1 0.347 1.465 0.604l1.637-1.171c0.216-0.155 0.51-0.131 0.698 0.057l1.534 1.534c0.188 0.188 0.212 0.482 0.057 0.698l-1.171 1.641c0.257 0.461 0.461 0.955 0.608 1.465l1.987 0.33c0.261 0.045 0.453 0.269 0.453 0.535v1.628c0 0.298-0.245 0.543-0.543 0.543z"></path>
<path fill="#006df0" d="M19.814 9.762c-0.298 0-0.543-0.241-0.543-0.543 0-1.796-1.457-3.253-3.253-3.253s-3.253 1.457-3.253 3.253c0 0.298-0.241 0.543-0.543 0.543-0.298 0-0.543-0.241-0.543-0.543 0-2.396 1.943-4.338 4.338-4.338s4.338 1.942 4.338 4.338c0 0.298-0.241 0.543-0.543 0.543z"></path>
<path fill="#006df0" d="M17.647 9.762c-0.298 0-0.543-0.241-0.543-0.543 0-0.6-0.486-1.085-1.086-1.085s-1.085 0.486-1.085 1.085c0 0.298-0.241 0.543-0.543 0.543-0.298 0-0.543-0.241-0.543-0.543 0-1.2 0.971-2.171 2.171-2.171s2.171 0.971 2.171 2.171c0 0.298-0.245 0.543-0.543 0.543z"></path>
<path fill="#c0ab91" d="M27.409 25.487h-22.781v-3.253h22.777v3.253zM5.714 24.405h20.606v-1.086h-20.606z"></path>
<path fill="#ffd422" d="M4.628 19.524h1.085v2.171h-1.085z"></path>
<path fill="#ffd422" d="M6.799 18.439h1.085v3.253h-1.085z"></path>
<path fill="#ffd422" d="M8.97 17.353h1.086v4.338h-1.086z"></path>
<path fill="#ffd422" d="M11.137 19.524h1.085v2.171h-1.085z"></path>
<path fill="#ffd422" d="M13.309 17.353h1.085v4.338h-1.085z"></path>
<path fill="#ffd422" d="M26.323 15.186h1.086v6.509h-1.086z"></path>
<path fill="#ffd422" d="M24.152 16.267h1.086v5.424h-1.086z"></path>
<path fill="#ffd422" d="M21.985 18.439h1.086v3.253h-1.086z"></path>
<path fill="#ffd422" d="M19.814 17.353h1.086v4.338h-1.086z"></path>
<path fill="#ffd422" d="M17.647 16.267h1.085v5.424h-1.085z"></path>
<path fill="#ffd422" d="M15.476 18.439h1.086v3.253h-1.086z"></path>
</svg>
